# xmcd
#
# Track frame offsets:
#	150
#	18069
#	32669
#	51842
#	69250
#	83577
#	100910
#	115730
#	130862
#	146824
#	166381
#	181092
#	207542
#	223391
#
# Disc length: 3172 seconds
#
# Revision: 0
# Processed by: cddbd v1.5.2PL0 Copyright (c) Steve Scherf et al.
# Submitted via: audiograbber 1.83.01
#
DISCID=c10c620e
DTITLE=Ken Perlman - Northern Banjo
DYEAR=1900
DGENRE=A Cappella
TTITLE0=Ken Perlman - The Poppy Leaf/Stack of Barley/The East Newk of Bear Rive
TTITLE0=r
TTITLE1=Ken Perlman - Rock Valley Jig/Light&Airy/The Munster Lass
TTITLE2=Ken Perlman - The Banks Hornpipe/The Democratic Rage/Miss Johnson of Pi
TTITLE2=ttworth
TTITLE3=Ken Perlman - Robert Cormak,Aberdeen/Compliments to Buddy MacMaster/Fis
TTITLE3=her's Hornpipe
TTITLE4=Ken Perlman - Kenmure's Awa'/Wilfred's Fiddle/Jackson's Jig
TTITLE5=Ken Perlman - Road to Mexico
TTITLE6=Ken Perlman - Guitar Solo: Neil Gow's Lament for His Second Wife
TTITLE7=Ken Perlman - Lord MacDonald's Reel/The Princess Reel/The Honeymoon
TTITLE8=Ken Perlman - The Braes of Auchterty/Caber Feidh
TTITLE9=Ken Perlman - Guitar Solo: Lament for James Moray, Abercarney/Dunie Mai
TTITLE9=ns/The Chaisson Reel
TTITLE10=Ken Perlman - Shandon Bells/The Orange and Blue/Chorus Jig
TTITLE11=Ken Perlman - Stella's Trip to Kamloops/The Iron Man/Angus Campbell/Di
TTITLE11=llon Brown/Big John MacNeil
TTITLE12=Ken Perlman - Guitar Solo: The Sweetness of Mary/Mason's Apron
TTITLE13=Ken Perlman - Georgina Campbell/Little Jack's Reel/Levantine's Barrel
EXTD=
EXTT0=
EXTT1=
EXTT2=
EXTT3=
EXTT4=
EXTT5=
EXTT6=
EXTT7=
EXTT8=
EXTT9=
EXTT10=
EXTT11=
EXTT12=
EXTT13=
PLAYORDER=
